<?xml version="1.0" encoding="UTF-8"?>
<svg version="1.1" xmlns="http://www.w3.org/2000/svg" width="1024" height="1024">
<path d="M0 0 C337.92 0 675.84 0 1024 0 C1024 337.92 1024 675.84 1024 1024 C686.08 1024 348.16 1024 0 1024 C0 686.08 0 348.16 0 0 Z " fill="#FAFAFA" transform="translate(0,0)"/>
<path d="M0 0 C1.74171478 0.00323273 1.74171478 0.00323273 3.51861572 0.00653076 C52.17938186 0.1510189 115.50358074 3.55036927 152.3125 39.9375 C161.72669777 49.89643622 165.66859388 59.68256821 165.57518005 73.42500305 C165.58325836 74.87576376 165.58325836 74.87576376 165.59149987 76.35583276 C165.60571223 79.56979258 165.59869227 82.78333662 165.59155273 85.99731445 C165.59725986 88.31264576 165.60422544 90.62797426 165.61235046 92.94329834 C165.63026043 99.21408094 165.62911732 105.48472344 165.62340808 111.75552392 C165.62031267 116.99885313 165.62641271 122.24215557 165.63244683 127.48548096 C165.64728549 140.56716114 165.64368464 153.64876285 165.63158352 166.73044273 C165.62165669 178.06660814 165.63458566 189.40261021 165.65851771 200.73875044 C165.68295779 212.40426703 165.69210551 224.06970093 165.68586498 235.73524255 C165.68250083 242.27428904 165.68487446 248.81320065 165.70211601 255.35222816 C165.71762965 261.50422367 165.71358029 267.65590842 165.69481087 273.80789185 C165.69113705 276.05840688 165.69419799 278.30894516 165.70469666 280.55943871 C165.78757642 299.80326255 163.68499848 313.28161874 150.125 327.875 C113.75124079 362.77414735 51.65998514 366.53397043 4.3125 366.5625 C3.30127075 366.56317474 2.2900415 366.56384949 1.24816895 366.56454468 C-47.17399174 366.51351876 -108.02024035 361.67579184 -145 326.21484375 C-153.93818288 316.52539119 -158.28802557 305.32714411 -158.20018005 292.2375946 C-158.20556559 291.26240256 -158.21095113 290.28721051 -158.21649987 289.28246719 C-158.2307348 286.03543005 -158.22368662 282.78880317 -158.21655273 279.54174805 C-158.22225868 277.20523757 -158.2292238 274.86872988 -158.23735046 272.53222656 C-158.25527355 266.19947083 -158.25411484 259.86685373 -158.24840808 253.53408027 C-158.24492275 247.57060698 -158.25288393 241.60715475 -158.25976873 235.64368603 C-158.27347904 223.10908252 -158.26806683 210.57454151 -158.25658352 198.03993944 C-158.24665644 186.59310454 -158.25958527 175.14643141 -158.28351771 163.69962146 C-158.30794952 151.92453258 -158.31750635 140.14951891 -158.31086498 128.37440521 C-158.30738132 121.77222824 -158.30988611 115.17015963 -158.32711601 108.56799889 C-158.34261809 102.35692484 -158.33859302 96.14615876 -158.31981087 89.93509674 C-158.31613385 87.66158671 -158.31920741 85.3880537 -158.32969666 83.1145649 C-158.40693021 64.98378531 -156.81451465 51.87962917 -143.8125 38.3125 C-130.14773148 25.52034577 -112.50555376 17.77055409 -94.8125 12.3125 C-94.15088867 12.09787109 -93.48927734 11.88324219 -92.80761719 11.66210938 C-82.70797327 8.40225356 -72.45553763 6.39950035 -62 4.625 C-60.81575439 4.42253662 -59.63150879 4.22007324 -58.41137695 4.01147461 C-38.96309097 0.86347933 -19.68410792 -0.06595582 0 0 Z " fill="#101111" transform="translate(351.8125,172.6875)"/>
<path d="M0 0 C0.53577545 40.94082131 -11.15584808 80.87814118 -40.0625 110.5625 C-62.99265949 133.32692032 -103.05351203 155 -136 155 C-136.65247647 158.14449224 -137.29572575 161.29080756 -137.9375 164.4375 C-138.11990234 165.31599609 -138.30230469 166.19449219 -138.49023438 167.09960938 C-138.66748047 167.97294922 -138.84472656 168.84628906 -139.02734375 169.74609375 C-139.18968506 170.53685303 -139.35202637 171.3276123 -139.51928711 172.14233398 C-140.77126357 179.5848858 -141.17887804 186.96612561 -141.31640625 194.50390625 C-141.3475779 195.94974342 -141.3475779 195.94974342 -141.37937927 197.42478943 C-141.44418896 200.47062818 -141.50343716 203.51654495 -141.5625 206.5625 C-141.60575062 208.64128376 -141.64936688 210.72005994 -141.69335938 212.79882812 C-141.79979888 217.8658077 -141.90125453 222.93286488 -142 228 C-140.61349243 228.07891479 -140.61349243 228.07891479 -139.19897461 228.15942383 C-105.66574783 230.27073454 -79.08638447 247.54570318 -57 272 C-50.97077926 279.10801864 -45.83903017 286.83357641 -41.25 294.9375 C-40.90203369 295.52789063 -40.55406738 296.11828125 -40.19555664 296.7265625 C-37.57491265 301.62521969 -37.80173334 304.75826731 -39 310 C-41.19257809 312.64233769 -42.93339618 314.46669809 -46 316 C-48.70944601 316.10231062 -51.39344562 316.1433767 -54.10334778 316.14044189 C-54.95090769 316.14341302 -55.7984676 316.14638414 -56.67171115 316.1494453 C-59.5283023 316.15815724 -62.38485167 316.15964265 -65.24145508 316.16113281 C-67.28287344 316.16575923 -69.32429092 316.17078364 -71.3657074 316.17617798 C-76.92359834 316.1893211 -82.4814772 316.19575067 -88.03938127 316.20018864 C-91.50922894 316.20311631 -94.97907329 316.20722053 -98.4489193 316.21169281 C-109.2979677 316.22537283 -120.14700853 316.23503699 -130.99606496 316.2388947 C-143.53320485 316.24337672 -156.07023579 316.26092925 -168.60734254 316.2898953 C-178.28891182 316.31148979 -187.9704504 316.32159779 -197.65204352 316.32293582 C-203.43864766 316.32398546 -209.22514944 316.32992696 -215.01172829 316.34775543 C-220.45438949 316.3641975 -225.89687098 316.36641042 -231.33954811 316.35761642 C-233.3386381 316.35684397 -235.3377376 316.36121604 -237.33680344 316.37107468 C-240.06331847 316.38373354 -242.7891912 316.37795044 -245.51570129 316.36749268 C-246.70578449 316.37957728 -246.70578449 316.37957728 -247.91990978 316.39190602 C-253.54000359 316.34139852 -256.68450258 315.07596321 -260.8125 311.375 C-262.67001848 307.65996303 -262.48606663 304.07982641 -262 300 C-261.00310219 297.12871781 -259.5871453 294.64674751 -258 292.0625 C-257.59136719 291.3701123 -257.18273437 290.67772461 -256.76171875 289.96435547 C-253.30878085 284.23573907 -249.43198549 279.01266952 -245 274 C-244.27941406 273.17113281 -243.55882812 272.34226562 -242.81640625 271.48828125 C-240.57973873 268.95700934 -238.30162021 266.47225757 -236 264 C-235.31421875 263.24847656 -234.6284375 262.49695313 -233.921875 261.72265625 C-216.94841545 243.83765906 -191.64880186 230.55250344 -167 228 C-164.66669 227.98956606 -162.33330539 227.98857977 -160 228 C-159.96550544 199.79819303 -159.96550544 199.79819303 -164 172 C-164.30381592 170.69385742 -164.30381592 170.69385742 -164.61376953 169.36132812 C-167.55463951 157.03320116 -171.30868431 145.3412901 -177 134 C-177.36480469 133.071875 -177.72960937 132.14375 -178.10546875 131.1875 C-181.18775401 127.62857269 -185.11818547 127.68609695 -189.625 127.0625 C-216.4215128 122.63859082 -241.16669139 109.61123659 -257.5625 87.4375 C-265.72748435 75.08385938 -271.65864507 62.43894739 -275 48 C-275.18111328 47.22914063 -275.36222656 46.45828125 -275.54882812 45.6640625 C-276.92008568 39.39687095 -277.40918308 33.27756848 -277.625 26.875 C-277.66367187 25.91851562 -277.70234375 24.96203125 -277.7421875 23.9765625 C-277.83520128 21.65121801 -277.92103771 19.32585665 -278 17 C-248.47701159 17.94918699 -218.46801638 23.05932642 -196 44 C-195.18660156 44.72316406 -194.37320313 45.44632812 -193.53515625 46.19140625 C-174.97107676 63.55411234 -165.72594241 87.31643472 -164.25 112.3125 C-163.60432732 123.07639043 -160.56658508 131.71766831 -155.70263672 141.28027344 C-155 143 -155 143 -155 146 C-154.34 146 -153.68 146 -153 146 C-152.98582031 145.09765625 -152.97164062 144.1953125 -152.95703125 143.265625 C-151.88606191 107.77655103 -141.92621296 70.93901297 -118 44 C-117.21109375 43.11054688 -116.4221875 42.22109375 -115.609375 41.3046875 C-86.43713333 10.49029978 -41.1486564 -0.60197059 0 0 Z " fill="#111111" transform="translate(847,222)"/>
<path d="M0 0 C1.13981827 -0.00979385 2.27963654 -0.01958771 3.45399475 -0.02967834 C27.81037241 -0.1959409 51.69672153 -0.2898727 75.703125 4.23828125 C76.88487305 4.45790527 78.06662109 4.6775293 79.28417969 4.90380859 C103.28095731 9.50454764 134.8405196 15.78459258 151.703125 35.23828125 C152.16976563 35.77582031 152.63640625 36.31335938 153.1171875 36.8671875 C156.76574473 42.01736183 156.61375849 48.19425367 155.703125 54.23828125 C154.53469973 57.41510572 152.93404732 59.70916635 150.703125 62.23828125 C150.20296875 62.80804688 149.7028125 63.3778125 149.1875 63.96484375 C117.30681606 95.41470763 51.00560752 97.70336241 9.30960083 97.47808838 C-33.00676902 97.05271149 -87.55295576 92.12942167 -120.30859375 62.51171875 C-125.0072274 57.13921426 -125.97644772 52.21425451 -125.76171875 45.265625 C-124.54396299 37.3348627 -118.67955812 31.91858291 -112.4921875 27.2734375 C-80.17814213 6.69199785 -37.65319849 0.26882256 0 0 Z " fill="#F9F9F9" transform="translate(340.296875,193.76171875)"/>
<path d="M0 0 C0.53752899 0.40756531 1.07505798 0.81513062 1.62887573 1.23504639 C2.69599289 2.04053925 2.69599289 2.04053925 3.78466797 2.86230469 C4.48719696 3.39362 5.18972595 3.9249353 5.9135437 4.47235107 C42.2548816 31.08053157 97.89238362 34.66563134 140.9375 34.375 C142.15947083 34.37067963 143.38144165 34.36635925 144.64044189 34.36190796 C162.26351712 34.28894261 179.58875042 33.94507313 197 31 C198.08684082 30.82307617 199.17368164 30.64615234 200.29345703 30.46386719 C227.02630707 26.01543489 256.31165486 19.54559251 278.71264648 3.37329102 C279.64112648 2.70463768 279.64112648 2.70463768 280.58836365 2.0224762 C281.05420364 1.68505905 281.52004364 1.34764191 282 1 C282.0992969 7.11974418 282.17167096 13.23901352 282.21972656 19.359375 C282.23977159 21.43888525 282.26701513 23.51833963 282.30175781 25.59765625 C282.35058948 28.59649487 282.37304028 31.59458463 282.390625 34.59375 C282.41127014 35.51490601 282.43191528 36.43606201 282.45318604 37.38513184 C282.45565378 44.57548617 280.60720348 49.5156631 276.31640625 55.25 C255.2855573 76.23400965 221.3032088 83.38081367 193 88 C192.13149414 88.14953125 191.26298828 88.2990625 190.36816406 88.453125 C174.7213149 91.04510573 159.13210432 91.28938585 143.3125 91.3125 C142.33082855 91.31608521 141.3491571 91.31967041 140.33773804 91.32336426 C121.90092012 91.359553 103.38362178 90.46146437 85.1875 87.3125 C83.73210815 87.06258301 83.73210815 87.06258301 82.24731445 86.80761719 C58.08154932 82.43452572 22.53499734 75.1219602 6.1796875 54.73046875 C1.13606414 47.38432169 -0.29502142 41.94147878 -0.1953125 33.10546875 C-0.1924826 32.15811356 -0.18965271 31.21075836 -0.18673706 30.23469543 C-0.17557187 27.21883334 -0.15047389 24.20327184 -0.125 21.1875 C-0.11496547 19.13867617 -0.10584045 17.08984768 -0.09765625 15.04101562 C-0.07564449 10.02722852 -0.04113971 5.01366517 0 0 Z " fill="#F9F9F9" transform="translate(214,352)"/>
<path d="M0 0 C0.70850098 0.45890625 1.41700195 0.9178125 2.14697266 1.390625 C42.19159508 27.13601116 90.74740379 33.18842581 137.45605469 33.18530273 C141.09582336 33.18748253 144.73528494 33.20567302 148.375 33.22460938 C162.04629722 33.25795485 175.43945026 32.76143681 189 31 C190.13324707 30.85925049 191.26649414 30.71850098 192.43408203 30.57348633 C222.48344607 26.59442487 251.55108206 19.00298142 278 4 C279.33031494 3.32733041 280.66305704 2.65939802 282 2 C282.09933715 7.83491118 282.17168936 13.66932337 282.21972656 19.50488281 C282.23976497 21.48739199 282.26700353 23.46984263 282.30175781 25.45214844 C282.35061954 28.31199641 282.37304673 31.17105881 282.390625 34.03125 C282.41127014 34.90865845 282.43191528 35.78606689 282.45318604 36.69006348 C282.45614629 44.92311791 279.55726104 50.93561248 274 57 C242.42968789 84.28959182 191.02023244 89.06622051 151 90 C150.07461426 90.02191406 149.14922852 90.04382813 148.19580078 90.06640625 C105.46845839 90.9084626 47.68727611 88.57882497 13 60 C11.9275 59.236875 10.855 58.47375 9.75 57.6875 C4.67354284 52.72641687 0.30821638 46.22227497 -0.12025452 38.96246338 C-0.11803391 38.24298523 -0.11581329 37.52350708 -0.11352539 36.78222656 C-0.11344986 35.96167786 -0.11337433 35.14112915 -0.11329651 34.29571533 C-0.10813522 33.41953552 -0.10297394 32.54335571 -0.09765625 31.640625 C-0.0962413 30.73624695 -0.09482635 29.8318689 -0.09336853 28.90008545 C-0.08777911 26.01668973 -0.07522853 23.13337218 -0.0625 20.25 C-0.05748363 18.29296987 -0.05292096 16.33593853 -0.04882812 14.37890625 C-0.03781313 9.58590747 -0.02055574 4.79296698 0 0 Z " fill="#F9F9F9" transform="translate(214,277)"/>
<path d="M0 0 C0.54917587 0.41395523 1.09835175 0.82791046 1.66416931 1.25440979 C2.38463943 1.79637497 3.10510956 2.33834015 3.84741211 2.89672852 C4.56158798 3.43443375 5.27576385 3.97213898 6.01158142 4.52613831 C53.0441801 39.38778479 128.34000097 40.64923152 184 34 C184.8657666 33.90348145 185.7315332 33.80696289 186.62353516 33.70751953 C215.79491634 30.38998991 254.38173822 23.90528685 277.32421875 4.234375 C280 2 280 2 282 2 C282.0992969 8.11974418 282.17167096 14.23901352 282.21972656 20.359375 C282.23977159 22.43888525 282.26701513 24.51833963 282.30175781 26.59765625 C282.35058948 29.59649487 282.37304028 32.59458463 282.390625 35.59375 C282.41127014 36.51490601 282.43191528 37.43606201 282.45318604 38.38513184 C282.45565378 45.57548617 280.60720348 50.5156631 276.31640625 56.25 C245.55772945 86.94017195 188.68669179 91.44859523 148.0390625 91.41015625 C146.29737793 91.40072998 146.29737793 91.40072998 144.52050781 91.39111328 C141.00025733 91.37500118 137.48115428 91.39110429 133.9609375 91.41015625 C112.84518345 91.43067673 91.78918128 89.75184503 71.125 85.25 C69.92721924 84.99395996 68.72943848 84.73791992 67.49536133 84.47412109 C45.47218665 79.59381029 16.44578912 71.77321929 3 52 C0.1276069 45.66053006 -0.40911227 40.50328875 -0.29296875 33.59375 C-0.28872391 32.6284436 -0.28447906 31.66313721 -0.28010559 30.6685791 C-0.26343097 27.6120917 -0.22579992 24.55628515 -0.1875 21.5 C-0.17243866 19.41667625 -0.1587528 17.33334207 -0.14648438 15.25 C-0.11356424 10.16640785 -0.06186016 5.08331901 0 0 Z " fill="#F9F9F9" transform="translate(214,427)"/>
<path d="M0 0 C58.85062241 0 58.85062241 0 72.90625 13.8828125 C82.763858 24.53404148 85.83243274 37.2868751 85.34375 51.58203125 C84.51243609 65.06416155 80.25841395 77.30081514 70.3125 86.8125 C49.95019631 103.2286208 25.69439053 98 0 98 C0 65.66 0 33.32 0 0 Z " fill="#101010" transform="translate(506,727)"/>
<path d="M0 0 C58.34131041 0 58.34131041 0 73.03125 13.9140625 C82.68959023 24.14730394 84.56726367 36.76921562 84.40429688 50.32421875 C84.00229824 63.24426781 80.87063881 75.07377912 71.9375 84.75 C52.53621477 102.90062387 24.63587147 98 0 98 C0 65.66 0 33.32 0 0 Z " fill="#101111" transform="translate(170,591)"/>
<path d="M0 0 C57.54285714 0 57.54285714 0 68.3125 10.1875 C72.84042129 17.73403549 73.98690139 25.41712664 72 34 C69.75735879 38.40518809 67.09125212 41.23840482 63 44 C60.6875 44.75 60.6875 44.75 59 45 C59 45.66 59 46.32 59 47 C60.09441406 47.13535156 60.09441406 47.13535156 61.2109375 47.2734375 C67.25342742 48.84753151 71.76437579 54.09039895 75.0625 59.1875 C77.16756804 67.74811002 76.95900533 76.08198934 73 84 C68.52945696 91.11975372 61.40676116 94.18475388 53.58984375 96.421875 C35.98973351 100.35070805 18.06599485 98 0 98 C0 65.66 0 33.32 0 0 Z " fill="#111111" transform="translate(518,591)"/>
<path d="M0 0 C56.68309859 0 56.68309859 0 67.72265625 10.6640625 C73.94845702 17.36406431 75.56984388 23.91727353 75.2734375 32.98046875 C74.41513739 42.4585542 71.11149614 48.61581597 64 55 C60.5954844 57.11979273 58.97214164 58 55 58 C59.88705396 67.16703503 65.15874098 76.08379223 70.49365234 84.99316406 C71.56784154 86.78866871 72.63947096 88.58568226 73.7109375 90.3828125 C74.34306152 91.43871582 74.97518555 92.49461914 75.62646484 93.58251953 C77 96 77 96 77 97 C69.41 97 61.82 97 54 97 C51.95727093 93.39643195 49.91579419 89.79216364 47.875 86.1875 C47.30523438 85.18267578 46.73546875 84.17785156 46.1484375 83.14257812 C45.58125 82.14033203 45.0140625 81.13808594 44.4296875 80.10546875 C43.84413086 79.1004834 43.25857422 78.09549805 42.65527344 77.06005859 C41 74 41 74 39.75878906 70.81884766 C38.44960963 67.32499453 38.44960963 67.32499453 35 63 C30.05 62.67 25.1 62.34 20 62 C20 73.55 20 85.1 20 97 C13.4 97 6.8 97 0 97 C0 64.99 0 32.98 0 0 Z " fill="#101111" transform="translate(687,728)"/>
<path d="M0 0 C7.59 0 15.18 0 23 0 C31.01376351 20.68115963 38.79821198 41.44491831 46.47381973 62.25365067 C47.18642378 64.18458379 47.90001777 66.11514849 48.61386108 68.04562378 C49.96862237 71.71015847 51.31863722 75.37643103 52.66796875 79.04296875 C53.0757959 80.14590271 53.48362305 81.24883667 53.90380859 82.38519287 C54.28255127 83.41718811 54.66129395 84.44918335 55.05151367 85.51245117 C55.38092453 86.4069548 55.71033539 87.30145844 56.04972839 88.22306824 C57.15188008 91.44383164 58.06481542 94.72685395 59 98 C51.74 98 44.48 98 37 98 C35.2675 93.111875 35.2675 93.111875 33.5 88.125 C33.13455078 87.09906738 32.76910156 86.07313477 32.39257812 85.01611328 C31.9662207 83.80544189 31.9662207 83.80544189 31.53125 82.5703125 C31.23798828 81.74289551 30.94472656 80.91547852 30.64257812 80.06298828 C30 78 30 78 30 76 C17.79 76.33 5.58 76.66 -7 77 C-9.26183971 83.53589241 -9.26183971 83.53589241 -11.51733398 90.07397461 C-11.93994507 91.28839233 -11.93994507 91.28839233 -12.37109375 92.52734375 C-12.8031311 93.77632446 -12.8031311 93.77632446 -13.24389648 95.05053711 C-14 97 -14 97 -15 98 C-16.56172745 98.08685603 -18.12729344 98.10702219 -19.69140625 98.09765625 C-20.63564453 98.09443359 -21.57988281 98.09121094 -22.55273438 98.08789062 C-23.54595703 98.07951172 -24.53917969 98.07113281 -25.5625 98.0625 C-26.55958984 98.05798828 -27.55667969 98.05347656 -28.58398438 98.04882812 C-31.05604849 98.03700007 -33.52799518 98.02051849 -36 98 C-33.50358288 87.07896914 -29.24775734 76.7463266 -25.25 66.3125 C-24.11022429 63.32102172 -22.97222041 60.32887295 -21.83422852 57.3367157 C-21.05668342 55.2927916 -20.27852165 53.249102 -19.49975586 51.2056427 C-15.12233468 39.71496903 -10.81755444 28.19721872 -6.51623535 16.67788696 C-5.60546973 14.2393489 -4.69344296 11.80128566 -3.78125 9.36328125 C-3.37776337 8.2805896 -3.37776337 8.2805896 -2.96612549 7.17602539 C-1.11320808 2.22641616 -1.11320808 2.22641616 0 0 Z " fill="#101111" transform="translate(636,591)"/>
<path d="M0 0 C0.9583374 0.00523682 1.9166748 0.01047363 2.90405273 0.01586914 C4.45576172 0.02070312 4.45576172 0.02070312 6.03881836 0.02563477 C7.12743164 0.03401367 8.21604492 0.04239258 9.33764648 0.05102539 C10.97636719 0.05779297 10.97636719 0.05779297 12.64819336 0.06469727 C15.35723144 0.07652713 18.06616248 0.09300996 20.77514648 0.11352539 C20.96734268 0.63857666 21.15953888 1.16362793 21.3575592 1.70458984 C23.84855355 8.50843713 26.34237115 15.31124703 28.83764648 22.11352539 C29.24064972 23.21220947 29.64365295 24.31089355 30.05886841 25.44287109 C36.32519512 42.518693 42.66023718 59.56725562 49.08984375 76.58227539 C49.38516998 77.36558228 49.68049622 78.14888916 49.98477173 78.95593262 C50.52432983 80.38676334 51.06525082 81.81708144 51.60800171 83.2467041 C53.46401458 88.17111231 55.10731571 93.11003306 56.77514648 98.11352539 C49.51514648 98.11352539 42.25514648 98.11352539 34.77514648 98.11352539 C33.04264648 93.50383789 33.04264648 93.50383789 31.27514648 88.80102539 C30.90969727 87.83640381 30.54424805 86.87178223 30.16772461 85.87792969 C29.74136719 84.73191284 29.74136719 84.73191284 29.30639648 83.56274414 C29.01313477 82.7824585 28.71987305 82.00217285 28.41772461 81.19824219 C27.77514648 79.11352539 27.77514648 79.11352539 27.77514648 76.11352539 C15.56514648 76.44352539 3.35514648 76.77352539 -9.22485352 77.11352539 C-11.48669323 83.6494178 -11.48669323 83.6494178 -13.7421875 90.1875 C-14.16479858 91.40191772 -14.16479858 91.40191772 -14.59594727 92.64086914 C-15.02798462 93.88984985 -15.02798462 93.88984985 -15.46875 95.1640625 C-16.22485352 97.11352539 -16.22485352 97.11352539 -17.22485352 98.11352539 C-18.78658096 98.20038142 -20.35214696 98.22054759 -21.91625977 98.21118164 C-22.86049805 98.20795898 -23.80473633 98.20473633 -24.77758789 98.20141602 C-25.77081055 98.19303711 -26.7640332 98.1846582 -27.78735352 98.17602539 C-28.78444336 98.17151367 -29.7815332 98.16700195 -30.80883789 98.16235352 C-33.280902 98.15052546 -35.75284869 98.13404388 -38.22485352 98.11352539 C-37.61261626 93.61601089 -36.46249547 89.68661295 -34.8515625 85.44750977 C-34.61067398 84.80897568 -34.36978546 84.17044159 -34.12159729 83.51255798 C-33.32653114 81.40880545 -32.5237261 79.30809552 -31.72094727 77.20727539 C-31.15808999 75.72175648 -30.59576774 74.23603475 -30.03395081 72.75012207 C-28.55071373 68.8309555 -27.06111214 64.91424024 -25.56988525 60.99810791 C-23.21225698 54.80332823 -20.86441159 48.60482898 -18.51582718 42.40661621 C-17.6634294 40.15791869 -16.80991422 37.90964726 -15.95639038 35.66137695 C-12.37288252 26.21139586 -8.85862661 16.73928478 -5.4730072 7.21618652 C-2.94576286 0.15031052 -2.94576286 0.15031052 0 0 Z " fill="#111111" transform="translate(450.224853515625,590.886474609375)"/>
<path d="M0 0 C7.59 0 15.18 0 23 0 C23.59312988 1.59352295 24.18625977 3.1870459 24.79736328 4.82885742 C27.318548 11.60135731 29.8411034 18.37334611 32.36412811 25.14516068 C33.12122536 27.17736808 33.87815922 29.20963628 34.6350708 31.24191284 C39.5863303 44.53451226 44.53778808 57.82678396 49.578125 71.0859375 C50.0777626 72.40084923 50.0777626 72.40084923 50.5874939 73.74232483 C52.09880967 77.71656003 53.61484734 81.68891816 55.13720703 85.65893555 C55.66183754 87.03432197 56.18641796 88.4097275 56.7109375 89.78515625 C57.38068604 91.53131226 57.38068604 91.53131226 58.06396484 93.31274414 C59 96 59 96 59 98 C51.74 98 44.48 98 37 98 C35.2675 93.3903125 35.2675 93.3903125 33.5 88.6875 C33.13455078 87.72287842 32.76910156 86.75825684 32.39257812 85.7644043 C31.9662207 84.61838745 31.9662207 84.61838745 31.53125 83.44921875 C31.23798828 82.66893311 30.94472656 81.88864746 30.64257812 81.0847168 C30 79 30 79 30 76 C17.79 76 5.58 76 -7 76 C-7.99 79.3 -8.98 82.6 -10 86 C-11.56071059 90.05345117 -13.28265943 94.00834354 -15 98 C-21.93 98 -28.86 98 -36 98 C-34.13555468 91.78518225 -32.25888036 85.70694782 -30.0234375 79.63671875 C-29.74058899 78.86210297 -29.45774048 78.08748718 -29.1663208 77.28939819 C-28.23918184 74.75420851 -27.30736991 72.22077014 -26.375 69.6875 C-26.05440613 68.81358612 -25.73381226 67.93967224 -25.40350342 67.03927612 C-19.89198079 52.01646825 -14.27900161 37.03220136 -8.625 22.0625 C-8.24897644 21.06648773 -7.87295288 20.07047546 -7.48553467 19.04428101 C-6.42158446 16.2281533 -5.35579707 13.41273029 -4.2890625 10.59765625 C-3.96995911 9.75375336 -3.65085571 8.90985046 -3.32208252 8.04037476 C-1.11691726 2.23383453 -1.11691726 2.23383453 0 0 Z " fill="#111111" transform="translate(292,591)"/>
<path d="M0 0 C6.482567 4.43263821 11.42573913 10.29283247 13.75 17.8125 C13.75 20.1225 13.75 22.4325 13.75 24.8125 C7.15 24.8125 0.55 24.8125 -6.25 24.8125 C-7.24 22.1725 -8.23 19.5325 -9.25 16.8125 C-15.44454324 12.30737765 -21.72353453 11.73578264 -29.25 12.8125 C-32.44202715 14.10379265 -34.67137758 15.65525515 -36.25 18.8125 C-36.70808692 22.85893446 -36.7490996 25.04602561 -34.5 28.5 C-28.61234347 32.68929407 -21.74432087 34.17892308 -14.81640625 35.9609375 C-3.48047367 38.90023458 6.78855711 41.60490786 13.6328125 51.890625 C17.66412978 58.82561836 17.93166365 66.82403967 16.09765625 74.56640625 C12.49559675 84.6923675 5.9518886 89.11993731 -3.48046875 93.6484375 C-9.28565047 96.08841515 -14.64647468 96.02941354 -20.875 96.0625 C-21.82246094 96.083125 -22.76992188 96.10375 -23.74609375 96.125 C-35.00640266 96.18661592 -43.68915609 93.20528403 -52.25 85.8125 C-58.02024051 79.73856262 -61.25 73.28967959 -61.25 64.8125 C-54.32 64.8125 -47.39 64.8125 -40.25 64.8125 C-38.93 67.4525 -37.61 70.0925 -36.25 72.8125 C-29.44100563 78.34480792 -22.76261761 78.44677347 -14.25 77.8125 C-10.0619058 76.76727856 -7.70619841 75.49679762 -5.25 71.8125 C-4.82115856 69.43963728 -4.82115856 69.43963728 -4.8125 66.875 C-4.77253906 66.02035156 -4.73257813 65.16570312 -4.69140625 64.28515625 C-5.06800547 61.61794267 -5.06800547 61.61794267 -7.3828125 59.6171875 C-10.4628997 57.67849501 -13.04204052 56.77269648 -16.5625 55.875 C-17.79097656 55.54371094 -19.01945313 55.21242188 -20.28515625 54.87109375 C-20.9311377 54.6994873 -21.57711914 54.52788086 -22.24267578 54.35107422 C-48.42264278 47.32686999 -48.42264278 47.32686999 -55.1328125 35.97265625 C-58.74124043 28.99552112 -59.29315856 22.64339805 -57 15.1875 C-53.960567 7.02165006 -49.00844742 1.50394825 -41.09375 -2.1953125 C-39.17274134 -2.9336106 -37.21197699 -3.56620729 -35.25 -4.1875 C-34.66863281 -4.37183594 -34.08726562 -4.55617188 -33.48828125 -4.74609375 C-22.38617893 -6.93551358 -9.86161429 -5.57068288 0 0 Z " fill="#101011" transform="translate(760.25,594.1875)"/>
<path d="M0 0 C7.50053156 6.16334663 9.33227162 12.84833907 10.625 22.25 C4.025 22.25 -2.575 22.25 -9.375 22.25 C-10.365 19.94 -11.355 17.63 -12.375 15.25 C-17.64803932 10.98669161 -21.62262681 9.92244626 -28.34765625 10.03515625 C-32.70221552 10.49662207 -35.50096867 12.23499587 -38.3125 15.5 C-39.80276722 19.35716221 -39.70712248 21.32374426 -38.375 25.25 C-32.92165168 30.19827432 -26.0403548 31.62204336 -19.0625 33.1875 C-6.96388374 36.14532143 3.41459104 39.42411533 10.625 50.25 C14.03081177 56.19491159 14.47463014 62.52765166 13.625 69.25 C10.97192339 78.82828684 6.1808569 84.51754219 -2.24609375 89.66796875 C-13.50254891 95.35943484 -27.38796727 96.00043389 -39.375 92.25 C-50.41747943 87.8188512 -57.14153007 82.52135668 -62.4296875 71.875 C-63.375 69.25 -63.375 69.25 -64.375 62.25 C-57.445 62.25 -50.515 62.25 -43.375 62.25 C-42.055 64.89 -40.735 67.53 -39.375 70.25 C-34.11854115 74.43371214 -30.18262484 75.41539777 -23.5625 75.5 C-21.75845703 75.53867187 -21.75845703 75.53867187 -19.91796875 75.578125 C-16.02393771 75.21748706 -13.67727377 74.3133185 -10.375 72.25 C-8.36028403 69.22792605 -8.03780966 68.33273301 -7.9375 64.875 C-7.89753906 64.12476563 -7.85757813 63.37453125 -7.81640625 62.6015625 C-8.66667944 59.02209075 -10.32327676 57.13710941 -13.375 55.25 C-17.50554752 53.77461569 -21.72954844 52.7974358 -26 51.8125 C-39.50325138 48.68030251 -51.5178866 44.31907882 -59.3125 32.25 C-61.6929247 25.63271875 -61.5898177 17.17566091 -59.53125 10.5234375 C-55.88735961 3.35876112 -49.9691735 -1.88709014 -42.6875 -5.1875 C-28.75275931 -9.68949315 -12.11266597 -8.16433839 0 0 Z " fill="#101011" transform="translate(318.375,732.75)"/>
<path d="M0 0 C20.79 0 41.58 0 63 0 C63 5.94 63 11.88 63 18 C48.81 18 34.62 18 20 18 C20 25.26 20 32.52 20 40 C33.2 40 46.4 40 60 40 C60 45.61 60 51.22 60 57 C46.8 57 33.6 57 20 57 C20 64.59 20 72.18 20 80 C34.85 80 49.7 80 65 80 C65 85.94 65 91.88 65 98 C43.55 98 22.1 98 0 98 C0 65.66 0 33.32 0 0 Z " fill="#101010" transform="translate(792,591)"/>
<path d="M0 0 C20.79 0 41.58 0 63 0 C63 5.94 63 11.88 63 18 C48.81 18 34.62 18 20 18 C20 25.26 20 32.52 20 40 C33.2 40 46.4 40 60 40 C60 45.61 60 51.22 60 57 C46.8 57 33.6 57 20 57 C20 64.92 20 72.84 20 81 C34.85 81 49.7 81 65 81 C65 86.61 65 92.22 65 98 C43.55 98 22.1 98 0 98 C0 65.66 0 33.32 0 0 Z " fill="#101011" transform="translate(606,727)"/>
<path d="M0 0 C20.46 0 40.92 0 62 0 C62 5.94 62 11.88 62 18 C48.14 18 34.28 18 20 18 C20 25.26 20 32.52 20 40 C33.2 40 46.4 40 60 40 C60 45.61 60 51.22 60 57 C46.8 57 33.6 57 20 57 C20 64.92 20 72.84 20 81 C34.85 81 49.7 81 65 81 C65 86.61 65 92.22 65 98 C43.55 98 22.1 98 0 98 C0 65.66 0 33.32 0 0 Z " fill="#0F0F0F" transform="translate(426,727)"/>
<path d="M0 0 C20.46 0 40.92 0 62 0 C62 5.94 62 11.88 62 18 C48.14 18 34.28 18 20 18 C20 25.26 20 32.52 20 40 C33.2 40 46.4 40 60 40 C60 45.61 60 51.22 60 57 C46.8 57 33.6 57 20 57 C20 64.92 20 72.84 20 81 C34.85 81 49.7 81 65 81 C65 86.61 65 92.22 65 98 C43.55 98 22.1 98 0 98 C0 65.66 0 33.32 0 0 Z " fill="#0F1010" transform="translate(346,727)"/>
<path d="M0 0 C26.07 0 52.14 0 79 0 C79 5.94 79 11.88 79 18 C69.1 18 59.2 18 49 18 C49 44.4 49 70.8 49 98 C42.4 98 35.8 98 29 98 C29 71.6 29 45.2 29 18 C19.43 18 9.86 18 0 18 C0 12.06 0 6.12 0 0 Z " fill="#131314" transform="translate(342,591)"/>
<path d="M0 0 C28.81155063 0 28.81155063 0 37.56640625 8.29296875 C44.92276117 17.05244313 44.71728056 28.14735274 44 39 C42.9210732 46.57228443 39.78378392 51.99279629 34 57 C23.59646308 64.11932465 12.43931508 63 0 63 C0 42.21 0 21.42 0 0 Z " fill="#F9F9FA" transform="translate(526,745)"/>
<path d="M0 0 C28.68421875 0 28.68421875 0 36.49609375 7.25 C44.66824466 16.75941197 43.79770302 29.22214955 43 41 C41.7424568 48.23937033 38.14601972 52.83016544 32.44921875 57.37109375 C22.3716421 64.07340549 12.40760878 62 0 62 C0 41.54 0 21.08 0 0 Z " fill="#F9F9FA" transform="translate(190,609)"/>
<path d="M0 0 C3.815625 -0.061875 7.63125 -0.12375 11.5625 -0.1875 C13.34636108 -0.22846802 13.34636108 -0.22846802 15.16625977 -0.27026367 C21.23327012 -0.31776194 25.70096754 -0.05990326 31 3 C33.8694861 6.23736893 34.9003512 8.20280958 35.4375 12.5 C34.79144716 17.6684227 33.33191028 20.76798299 29.5 24.3125 C25.71307075 26.86867724 22.91836777 27.12126121 18.45703125 27.09765625 C17.00647339 27.09390991 17.00647339 27.09390991 15.52661133 27.09008789 C14.30095459 27.08098389 13.07529785 27.07187988 11.8125 27.0625 C5.9653125 27.0315625 5.9653125 27.0315625 0 27 C0 18.09 0 9.18 0 0 Z " fill="#F9F9F9" transform="translate(707,745)"/>
<path d="M0 0 C5.445 -0.0928125 5.445 -0.0928125 11 -0.1875 C12.12792969 -0.21481201 13.25585938 -0.24212402 14.41796875 -0.27026367 C21.06397034 -0.3247487 27.40481492 -0.13282731 32.67626953 4.46069336 C35.37366816 7.59737694 35.09532051 12.02831208 35 16 C33.77373714 19.39025614 32.62875656 20.55503382 29.71484375 22.6171875 C24.06798729 24.71917193 18.59393776 24.31360432 12.625 24.1875 C10.80548828 24.16719727 10.80548828 24.16719727 8.94921875 24.14648438 C5.96595432 24.11124897 2.98291941 24.05744567 0 24 C0 16.08 0 8.16 0 0 Z " fill="#F8F8F8" transform="translate(538,647)"/>
<path d="M0 0 C3.70877584 -0.08114826 7.41576511 -0.14057594 11.125 -0.1875 C12.17171875 -0.21263672 13.2184375 -0.23777344 14.296875 -0.26367188 C19.91928911 -0.31704922 24.21697857 -0.33790494 29 3 C31.41767072 6.43153264 32.01129054 8.35643909 31.9375 12.5625 C30.91347039 16.31727525 29.7377889 18.2622111 27 21 C23.8815675 22.0394775 21.72524414 22.11494838 18.45703125 22.09765625 C17.38388672 22.09443359 16.31074219 22.09121094 15.20507812 22.08789062 C14.08552734 22.07951172 12.96597656 22.07113281 11.8125 22.0625 C10.68134766 22.05798828 9.55019531 22.05347656 8.38476562 22.04882812 C5.58982124 22.03703511 2.79490401 22.01909957 0 22 C0 14.74 0 7.48 0 0 Z " fill="#F8F8F8" transform="translate(538,608)"/>
<path d="M0 0 C20.46 0 40.92 0 62 0 C62 5.94 62 11.88 62 18 C48.14 18 34.28 18 20 18 C20 25.26 20 32.52 20 40 C19.67 40 19.34 40 19 40 C19 32.41 19 24.82 19 17 C32.53 17 46.06 17 60 17 C60 12.38 60 7.76 60 3 C41.19 3 22.38 3 3 3 C3 33.69 3 64.38 3 96 C22.8 96 42.6 96 63 96 C63 91.71 63 87.42 63 83 C49.14 83 35.28 83 21 83 C21 82.67 21 82.34 21 82 C35.19 82 49.38 82 64 82 C64 86.95 64 91.9 64 97 C42.88 97 21.76 97 0 97 C0 64.99 0 32.98 0 0 Z " fill="#212121" transform="translate(426,727)"/>
<path d="M0 0 C20.46 0 40.92 0 62 0 C62 5.94 62 11.88 62 18 C48.14 18 34.28 18 20 18 C20 25.26 20 32.52 20 40 C32.54 40 45.08 40 58 40 C58 40.33 58 40.66 58 41 C52.92817521 41.1676542 47.8561943 41.32820966 42.78393555 41.48217773 C41.05828803 41.53556166 39.33269948 41.59088821 37.60717773 41.64819336 C35.12757073 41.7302051 32.64783593 41.80523843 30.16796875 41.87890625 C29.39599655 41.90594131 28.62402435 41.93297638 27.82865906 41.96083069 C24.58570577 42.05128101 22.10467559 42.03489186 19 41 C19 33.08 19 25.16 19 17 C32.53 17 46.06 17 60 17 C60 12.38 60 7.76 60 3 C41.19 3 22.38 3 3 3 C3 33.69 3 64.38 3 96 C23.13 96 43.26 96 64 96 C64 96.33 64 96.66 64 97 C42.88 97 21.76 97 0 97 C0 64.99 0 32.98 0 0 Z " fill="#212121" transform="translate(346,727)"/>
<path d="M0 0 C1.67578125 0.9609375 1.67578125 0.9609375 2.67578125 3.9609375 C0.22213997 7.62675955 -2.65610864 10.17335096 -6.13671875 12.8359375 C-25.12525686 28.15335824 -41.38267393 48.07784787 -52.32421875 69.9609375 C-52.98421875 69.9609375 -53.64421875 69.9609375 -54.32421875 69.9609375 C-54.32421875 50.63514219 -36.8950069 32.08530165 -24.32421875 18.9609375 C-23.28587891 17.84525391 -23.28587891 17.84525391 -22.2265625 16.70703125 C-17.93329269 12.22675877 -13.36156619 8.19518935 -8.51171875 4.3359375 C-7.96032227 3.88541016 -7.40892578 3.43488281 -6.84082031 2.97070312 C-2.93575608 -0.04934044 -2.93575608 -0.04934044 0 0 Z " fill="#F7F7F7" transform="translate(765.32421875,295.0390625)"/>
<path d="M0 0 C20.79 0 41.58 0 63 0 C63 5.94 63 11.88 63 18 C62.67 18 62.34 18 62 18 C62 12.39 62 6.78 62 1 C60.60843516 2.16277032 60.60843516 2.16277032 60.90234375 5.37890625 C60.90901631 6.77347077 60.92097468 8.16801743 60.9375 9.5625 C60.94201172 10.27341797 60.94652344 10.98433594 60.95117188 11.71679688 C60.96299136 13.47790013 60.98092737 15.23896036 61 17 C60.67 17 60.34 17 60 17 C60 12.38 60 7.76 60 3 C41.19 3 22.38 3 3 3 C3 33.69 3 64.38 3 96 C22.8 96 42.6 96 63 96 C63 91.71 63 87.42 63 83 C48.81 83 34.62 83 20 83 C20 82.67 20 82.34 20 82 C34.52 82 49.04 82 64 82 C64 86.95 64 91.9 64 97 C42.88 97.33 21.76 97.66 0 98 C0 65.66 0 33.32 0 0 Z " fill="#1D1D1E" transform="translate(606,727)"/>
<path d="M0 0 C2.21597078 3.32395617 3.36084754 6.65138761 4.6015625 10.40625 C4.8428891 11.12735962 5.0842157 11.84846924 5.33285522 12.59143066 C5.84097943 14.11376476 6.34683843 15.63685656 6.85058594 17.16064453 C7.62285027 19.49350607 8.40466345 21.82301163 9.1875 24.15234375 C9.68026483 25.63262044 10.17247134 27.11308313 10.6640625 28.59375 C10.89839996 29.2906897 11.13273743 29.98762939 11.37417603 30.70568848 C12.32421817 33.59784109 13 35.93358242 13 39 C4.42 39 -4.16 39 -13 39 C-12.14535156 36.51984375 -11.29070313 34.0396875 -10.41015625 31.484375 C-9.5823616 29.07842577 -8.7551424 26.67227943 -7.92797852 24.26611328 C-7.35338496 22.59565878 -6.7781946 20.92540943 -6.20239258 19.25537109 C-5.37423746 16.85307816 -4.54824051 14.45005247 -3.72265625 12.046875 C-3.46533218 11.30193787 -3.20800812 10.55700073 -2.94288635 9.78948975 C-1.8311824 6.54739863 -0.79805354 3.33257924 0 0 Z " fill="#F8F8F8" transform="translate(647,611)"/>
<path d="M0 0 C2.74454337 2.74454337 3.45593803 5.94531861 4.6015625 9.5625 C4.8428891 10.30959229 5.0842157 11.05668457 5.33285522 11.82641602 C5.8416627 13.40580786 6.34749867 14.98615961 6.85058594 16.56738281 C7.62261916 18.99252121 8.40426307 21.41439719 9.1875 23.8359375 C9.68025698 25.36960881 10.17246324 26.9034572 10.6640625 28.4375 C10.89839996 29.16461182 11.13273743 29.89172363 11.37417603 30.64086914 C13 35.76764888 13 35.76764888 13 38 C4.75 38 -3.5 38 -12 38 C-9.75175512 27.88289806 -9.75175512 27.88289806 -8.125 23.5546875 C-7.77953125 22.62269531 -7.4340625 21.69070313 -7.078125 20.73046875 C-6.72234375 19.78816406 -6.3665625 18.84585938 -6 17.875 C-3.78488202 11.95999293 -1.62409504 6.10727405 0 0 Z " fill="#F7F7F8" transform="translate(303,612)"/>
<path d="M0 0 C2.22268317 3.33402475 3.3621956 6.67374064 4.6015625 10.44140625 C4.8428891 11.16488754 5.0842157 11.88836884 5.33285522 12.6337738 C5.84092627 14.16032379 6.34678691 15.68761099 6.85058594 17.21557617 C7.62386527 19.5590611 8.40513359 21.89976953 9.1875 24.24023438 C9.68016364 25.7238003 10.172367 27.20751917 10.6640625 28.69140625 C10.89839996 29.39350723 11.13273743 30.09560822 11.37417603 30.81898499 C13 35.76895149 13 35.76895149 13 38 C4.42 38 -4.16 38 -13 38 C-12.14535156 35.50824219 -11.29070312 33.01648438 -10.41015625 30.44921875 C-9.58273283 28.03655029 -8.75535353 25.6238667 -7.92797852 23.21118164 C-7.35282938 21.53408247 -6.77763437 19.85699903 -6.20239258 18.17993164 C-5.37569312 15.76973538 -4.54915855 13.35948263 -3.72265625 10.94921875 C-3.33667015 9.82407112 -3.33667015 9.82407112 -2.94288635 8.67619324 C-1.95236141 5.7871881 -0.96579477 2.89738431 0 0 Z " fill="#F8F8F8" transform="translate(459,612)"/>
<path d="M0 0 C19.8 0 39.6 0 60 0 C60 5.61 60 11.22 60 17 C46.14 17 32.28 17 18 17 C18 24.26 18 31.52 18 39 C31.2 39 44.4 39 58 39 C58 44.61 58 50.22 58 56 C44.8 56 31.6 56 18 56 C18 55.67 18 55.34 18 55 C30.54 55 43.08 55 56 55 C56 50.38 56 45.76 56 41 C54.854104 41.00523682 53.70820801 41.01047363 52.52758789 41.01586914 C48.29159318 41.03391717 44.05560188 41.04543128 39.81958008 41.05493164 C37.98331125 41.05997231 36.14704646 41.06680477 34.31079102 41.07543945 C31.67723599 41.08751672 29.04373384 41.09323081 26.41015625 41.09765625 C25.17109276 41.10539818 25.17109276 41.10539818 23.90699768 41.11329651 C21.93763632 41.11349205 19.96838386 41.06204152 18 41 C17 40 17 40 16.88647461 37.68334961 C16.89171143 36.68311768 16.89694824 35.68288574 16.90234375 34.65234375 C16.90484131 33.68031006 16.90733887 32.70827637 16.90991211 31.70678711 C16.91901611 30.46292236 16.92812012 29.21905762 16.9375 27.9375 C16.958125 23.998125 16.97875 20.05875 17 16 C30.86 16 44.72 16 59 16 C59 11.05 59 6.1 59 1 C39.53 1 20.06 1 0 1 C0 0.67 0 0.34 0 0 Z " fill="#020202" transform="translate(608,728)"/>
<path d="M0 0 C11.88 0 23.76 0 36 0 C36 0.33 36 0.66 36 1 C24.78 1.33 13.56 1.66 2 2 C2 33.02 2 64.04 2 96 C15.86 96 29.72 96 44 96 C43.34 96.66 42.68 97.32 42 98 C28.14 98 14.28 98 0 98 C0 65.66 0 33.32 0 0 Z " fill="#040404" transform="translate(170,591)"/>
<path d="M0 0 C6.93 0 13.86 0 21 0 C17.47422439 1.76288781 15.75578663 2.33825765 12 2.6875 C11.154375 2.77386719 10.30875 2.86023438 9.4375 2.94921875 C7 3 7 3 3 2 C3 21.14 3 40.28 3 60 C7.95 60 12.9 60 18 60 C17.67 60.99 17.34 61.98 17 63 C11.39 63 5.78 63 0 63 C0 42.21 0 21.42 0 0 Z " fill="#E1E1E1" transform="translate(526,745)"/>
<path d="M0 0 C13.2 0 26.4 0 40 0 C40 5.28 40 10.56 40 16 C26.8 16 13.6 16 0 16 C0 23.59 0 31.18 0 39 C14.52 39 29.04 39 44 39 C44 39.33 44 39.66 44 40 C37.60962769 40.02527062 31.21926817 40.04283317 24.82885742 40.05493164 C22.65307127 40.05997308 20.47728853 40.06680607 18.30151367 40.07543945 C15.18146933 40.08751338 12.06146962 40.09323005 8.94140625 40.09765625 C7.47266808 40.10539818 7.47266808 40.10539818 5.97425842 40.11329651 C5.07340012 40.11337204 4.17254181 40.11344757 3.24438477 40.11352539 C2.44718521 40.115746 1.64998566 40.11796661 0.82862854 40.12025452 C-1 40 -1 40 -2 39 C-2.09932153 37.30441274 -2.13080007 35.60474253 -2.1328125 33.90625 C-2.13474609 32.36130859 -2.13474609 32.36130859 -2.13671875 30.78515625 C-2.13285156 29.70105469 -2.12898437 28.61695313 -2.125 27.5 C-2.12886719 26.41589844 -2.13273438 25.33179688 -2.13671875 24.21484375 C-2.13542969 23.18488281 -2.13414062 22.15492188 -2.1328125 21.09375 C-2.13168457 20.14177734 -2.13055664 19.18980469 -2.12939453 18.20898438 C-2 16 -2 16 -1 15 C1.8116338 14.91138008 4.59858255 14.88477645 7.41015625 14.90234375 C8.25219101 14.9037587 9.09422577 14.90517365 9.96177673 14.90663147 C12.66205335 14.91224737 15.36224828 14.92480252 18.0625 14.9375 C19.88867068 14.94251295 21.71484266 14.94707621 23.54101562 14.95117188 C28.02737542 14.96222196 32.51367384 14.97949721 37 15 C37 10.38 37 5.76 37 1 C24.79 1 12.58 1 0 1 C0 0.67 0 0.34 0 0 Z " fill="#151515" transform="translate(812,632)"/>
<path d="M0 0 C13.2 0 26.4 0 40 0 C40 0.99 40 1.98 40 3 C27.79 3 15.58 3 3 3 C3 9.6 3 16.2 3 23 C16.86 23 30.72 23 45 23 C45 23.33 45 23.66 45 24 C30.15 24 15.3 24 0 24 C0 16.08 0 8.16 0 0 Z " fill="#C8C8C8" transform="translate(366,784)"/>
<path d="M0 0 C5.33852794 -0.0494731 10.67692214 -0.08575425 16.015625 -0.10986328 C17.83140386 -0.11991491 19.64716656 -0.13355828 21.46289062 -0.15087891 C24.07425935 -0.17516406 26.68541387 -0.18649148 29.296875 -0.1953125 C30.10743347 -0.20563507 30.91799194 -0.21595764 31.75311279 -0.22659302 C38.71585532 -0.22797609 38.71585532 -0.22797609 42 2 C38.77353541 3.61323229 35.2533805 3.12063563 31.7109375 3.09765625 C30.62292847 3.09614563 30.62292847 3.09614563 29.51293945 3.09460449 C26.80027691 3.08936769 24.08763689 3.07540644 21.375 3.0625 C12.279375 3.0315625 12.279375 3.0315625 3 3 C3 19.17 3 35.34 3 52 C2.67 52 2.34 52 2 52 C2 35.5 2 19 2 2 C1.34 2 0.68 2 0 2 C0 1.34 0 0.68 0 0 Z " fill="#252525" transform="translate(506,727)"/>
<path d="M0 0 C13.2 0 26.4 0 40 0 C40 0.33 40 0.66 40 1 C27.46 1 14.92 1 2 1 C2.33 7.93 2.66 14.86 3 22 C16.86 22.33 30.72 22.66 45 23 C45 23.33 45 23.66 45 24 C30.15 24 15.3 24 0 24 C0 16.08 0 8.16 0 0 Z " fill="#BDBDBD" transform="translate(626,784)"/>
<path d="M0 0 C0.66 0 1.32 0 2 0 C2 5.61 2 11.22 2 17 C-17.8 16.505 -17.8 16.505 -38 16 C-38 15.67 -38 15.34 -38 15 C-25.79 15 -13.58 15 -1 15 C-1 10.71 -1 6.42 -1 2 C-0.67 1.34 -0.34 0.68 0 0 Z " fill="#1C1C1C" transform="translate(484,767)"/>
<path d="M0 0 C12.54 0 25.08 0 38 0 C38 0.99 38 1.98 38 3 C25.46 3 12.92 3 0 3 C0 2.01 0 1.02 0 0 Z " fill="#F4F4F4" transform="translate(814,648)"/>
<path d="M0 0 C13.2 0 26.4 0 40 0 C40 5.28 40 10.56 40 16 C39.01 16 38.02 16 37 16 C37 11.05 37 6.1 37 1 C24.79 1 12.58 1 0 1 C0 0.67 0 0.34 0 0 Z " fill="#1A1B1B" transform="translate(812,632)"/>
<path d="M0 0 C6.93 0 13.86 0 21 0 C21 1.32 21 2.64 21 4 C15.06 3.67 9.12 3.34 3 3 C3.66 5.31 4.32 7.62 5 10 C4.01 10 3.02 10 2 10 C1.34 6.7 0.68 3.4 0 0 Z " fill="#292829" transform="translate(254,795)"/>
<path d="M0 0 C-0.63808594 0.98742187 -1.27617188 1.97484375 -1.93359375 2.9921875 C-2.76828248 4.28642395 -3.60291498 5.58069667 -4.4375 6.875 C-4.85837891 7.52597656 -5.27925781 8.17695313 -5.71289062 8.84765625 C-7.98773498 12.34740511 -7.98773498 12.34740511 -10 16 C-10.66 16 -11.32 16 -12 16 C-11.61302467 10.11530623 -10.95369303 5.1689628 -8 0 C-4.30016751 -2.31239531 -3.72935981 -2.48623987 0 0 Z " fill="#F0F0F0" transform="translate(723,349)"/>
<path d="M0 0 C11.22 0 22.44 0 34 0 C34.495 1.485 34.495 1.485 35 3 C21.8 3 8.6 3 -5 3 C-5 2.67 -5 2.34 -5 2 C-3.35 1.67 -1.7 1.34 0 1 C0 0.67 0 0.34 0 0 Z " fill="#CFCFCF" transform="translate(341,311)"/>
<path d="M0 0 C4.08327357 -0.0580772 8.16644083 -0.09362249 12.25 -0.125 C13.98830078 -0.15013672 13.98830078 -0.15013672 15.76171875 -0.17578125 C16.87675781 -0.18222656 17.99179687 -0.18867187 19.140625 -0.1953125 C20.68024902 -0.21102295 20.68024902 -0.21102295 22.25097656 -0.22705078 C25.01984288 0.00163889 26.64418792 0.5756701 29 2 C28 3 28 3 24.48999023 3.11352539 C22.92951578 3.11336626 21.36903607 3.10767142 19.80859375 3.09765625 C18.98875504 3.0962413 18.16891632 3.09482635 17.32423401 3.09336853 C14.69528618 3.08775289 12.06642227 3.07519779 9.4375 3.0625 C7.65950643 3.05748701 5.88151154 3.05292376 4.10351562 3.04882812 C-0.26435545 3.03777839 -4.63216348 3.02050331 -9 3 C-9 2.67 -9 2.34 -9 2 C-4.545 1.505 -4.545 1.505 0 1 C0 0.67 0 0.34 0 0 Z " fill="#202121" transform="translate(347,518)"/>
<path d="M0 0 C1.18613892 0.00785522 1.18613892 0.00785522 2.39624023 0.01586914 C3.67724609 0.02070312 3.67724609 0.02070312 4.98413086 0.02563477 C5.88196289 0.03401367 6.77979492 0.04239258 7.70483398 0.05102539 C8.6065332 0.05553711 9.50823242 0.06004883 10.43725586 0.06469727 C12.67234712 0.07652315 14.90730835 0.09300319 17.14233398 0.11352539 C17.14233398 0.77352539 17.14233398 1.43352539 17.14233398 2.11352539 C18.46233398 2.44352539 19.78233398 2.77352539 21.14233398 3.11352539 C20.45606934 3.13858154 19.76980469 3.1636377 19.06274414 3.18945312 C15.96407581 3.30523966 12.86572475 3.42804424 9.76733398 3.55102539 C8.68709961 3.5903418 7.60686523 3.6296582 6.49389648 3.67016602 C5.46264648 3.71206055 4.43139648 3.75395508 3.36889648 3.79711914 C2.4157959 3.83377686 1.46269531 3.87043457 0.48071289 3.90820312 C-1.87898951 3.97116005 -1.87898951 3.97116005 -3.85766602 5.11352539 C-2.74082081 0.16749661 -2.74082081 0.16749661 0 0 Z " fill="#1D1D1D" transform="translate(191.857666015625,605.886474609375)"/>
<path d="M0 0 C1.02963867 -0.01836914 1.02963867 -0.01836914 2.08007812 -0.03710938 C6.81322725 -0.0505431 10.69220432 0.70082051 15.1875 2.1875 C10.67936474 3.46705991 6.34327726 3.37148886 1.6875 3.375 C0.40552734 3.39336914 0.40552734 3.39336914 -0.90234375 3.41210938 C-2.14177734 3.41500977 -2.14177734 3.41500977 -3.40625 3.41796875 C-4.15583984 3.42207764 -4.90542969 3.42618652 -5.67773438 3.43041992 C-8.09048857 3.15586704 -9.71709178 2.38500325 -11.8125 1.1875 C-7.93184457 -0.06594168 -4.03371126 0.00372457 0 0 Z " fill="#181818" transform="translate(736.8125,588.8125)"/>
<path d="M0 0 C0.33 0 0.66 0 1 0 C1 6.93 1 13.86 1 21 C5.95 21 10.9 21 16 21 C15.67 21.99 15.34 22.98 15 24 C9.39 24 3.78 24 -2 24 C-1.505 22.515 -1.505 22.515 -1 21 C-0.85284801 19.37432921 -0.75278133 17.74413143 -0.68359375 16.11328125 C-0.64169922 15.17548828 -0.59980469 14.23769531 -0.55664062 13.27148438 C-0.51732422 12.29501953 -0.47800781 11.31855469 -0.4375 10.3125 C-0.39431641 9.32443359 -0.35113281 8.33636719 -0.30664062 7.31835938 C-0.20058346 4.87904454 -0.09852286 2.43962887 0 0 Z " fill="#D5D5D5" transform="translate(528,784)"/>
<path d="M0 0 C0.33 0.99 0.66 1.98 1 3 C0.34 4.32 -0.32 5.64 -1 7 C-7.93 7 -14.86 7 -22 7 C-21.67 5.35 -21.34 3.7 -21 2 C-20.34 2.33 -19.68 2.66 -19 3 C-19.33 3.66 -19.66 4.32 -20 5 C-13.73 5 -7.46 5 -1 5 C-0.67 3.35 -0.34 1.7 0 0 Z " fill="#030304" transform="translate(434,682)"/>
<path d="M0 0 C2 2 2 2 3 10 C-3.6 10 -10.2 10 -17 10 C-16.67 9.01 -16.34 8.02 -16 7 C-10.39 7.33 -4.78 7.66 1 8 C0.67 5.36 0.34 2.72 0 0 Z " fill="#040404" transform="translate(326,745)"/>
<path d="M0 0 C0.33 0.66 0.66 1.32 1 2 C0.67 2.66 0.34 3.32 0 4 C6.27 4 12.54 4 19 4 C19.33 3.01 19.66 2.02 20 1 C19.67 2.65 19.34 4.3 19 6 C12.07 6 5.14 6 -2 6 C-1.34 4.02 -0.68 2.04 0 0 Z " fill="#040505" transform="translate(602,683)"/>
<path d="M0 0 C0.33 0.99 0.66 1.98 1 3 C0.34 4.32 -0.32 5.64 -1 7 C-7.93 7 -14.86 7 -22 7 C-21.34 5.68 -20.68 4.36 -20 3 C-20 3.66 -20 4.32 -20 5 C-13.73 5 -7.46 5 -1 5 C-0.67 3.35 -0.34 1.7 0 0 Z " fill="#030404" transform="translate(278,682)"/>
<path d="M0 0 C6.93 0 13.86 0 21 0 C20.67 0.99 20.34 1.98 20 3 C14.06 2.67 8.12 2.34 2 2 C2 3.65 2 5.3 2 7 C1.34 6.34 0.68 5.68 0 5 C0 3.35 0 1.7 0 0 Z " fill="#040404" transform="translate(699,659)"/>
<path d="M0 0 C4.75 -0.125 4.75 -0.125 7 1 C7.845625 1 8.69125 1 9.5625 1 C10.366875 1 11.17125 1 12 1 C12.33 1.33 12.66 1.66 13 2 C15.67058851 2.14115161 18.32432238 2.04247107 21 2 C21.33 2.99 21.66 3.98 22 5 C19.62471849 4.85796663 17.24984749 4.71148388 14.875 4.5625 C14.20984375 4.52318359 13.5446875 4.48386719 12.859375 4.44335938 C8.84981183 4.187848 4.95005804 3.73217587 1 3 C0.67 2.01 0.34 1.02 0 0 Z " fill="#1A1B1B" transform="translate(293,532)"/>
<path d="M0 0 C0.33 0 0.66 0 1 0 C1 2.31 1 4.62 1 7 C-5.6 7 -12.2 7 -19 7 C-18.67 5.02 -18.34 3.04 -18 1 C-17.67 1.99 -17.34 2.98 -17 4 C-9.08 3.505 -9.08 3.505 -1 3 C-0.67 2.01 -0.34 1.02 0 0 Z " fill="#3F3F40" transform="translate(773,612)"/>
<path d="M0 0 C0.73839111 0.01571045 1.47678223 0.0314209 2.23754883 0.04760742 C3.03999023 0.05727539 3.84243164 0.06694336 4.66918945 0.0769043 C5.50256836 0.10204102 6.33594727 0.12717773 7.19458008 0.15307617 C8.46205078 0.17337891 8.46205078 0.17337891 9.75512695 0.1940918 C11.83938392 0.22941819 13.92331285 0.28322478 16.00708008 0.34057617 C16.33708008 1.33057617 16.66708008 2.32057617 17.00708008 3.34057617 C9.74708008 3.34057617 2.48708008 3.34057617 -4.99291992 3.34057617 C-1.99291992 0.34057617 -1.99291992 0.34057617 0 0 Z " fill="#1C1C1C" transform="translate(327.992919921875,172.659423828125)"/>
<path d="M0 0 C1.8871875 -0.02126953 1.8871875 -0.02126953 3.8125 -0.04296875 C7 0.1875 7 0.1875 9 2.1875 C5.76724299 3.14280645 2.80324361 3.35210378 -0.5625 3.375 C-1.51253906 3.38917969 -2.46257812 3.40335938 -3.44140625 3.41796875 C-6 3.1875 -6 3.1875 -9 1.1875 C-6.02958551 -0.29770725 -3.30235553 0.0169178 0 0 Z " fill="#1D1D1D" transform="translate(295,823.8125)"/>
<path d="M0 0 C2.93774463 -0.05390357 5.87450232 -0.0936255 8.8125 -0.125 C10.06256836 -0.15013672 10.06256836 -0.15013672 11.33789062 -0.17578125 C12.14033203 -0.18222656 12.94277344 -0.18867187 13.76953125 -0.1953125 C14.50792236 -0.20578613 15.24631348 -0.21625977 16.00708008 -0.22705078 C18 0 18 0 21 2 C17.99713071 3.50143464 14.9160504 3.2250678 11.625 3.25 C10.95210938 3.270625 10.27921875 3.29125 9.5859375 3.3125 C5.41432206 3.34534737 3.02422371 2.94667952 0 0 Z " fill="#191818" transform="translate(328,536)"/>
<path d="M0 0 C0.99 0.33 1.98 0.66 3 1 C3.05429959 2.74965358 3.09292823 4.49979787 3.125 6.25 C3.14820313 7.22453125 3.17140625 8.1990625 3.1953125 9.203125 C2.99862781 12.0196498 2.44568916 13.60949036 1 16 C0.34 16 -0.32 16 -1 16 C-0.67 10.72 -0.34 5.44 0 0 Z " fill="#181718" transform="translate(329,790)"/>
<path d="M0 0 C0.66 0 1.32 0 2 0 C2.33 5.28 2.66 10.56 3 16 C2.01 15.67 1.02 15.34 0 15 C-1.95065106 10.56670214 -1.47677092 4.43031277 0 0 Z " fill="#181818" transform="translate(703,611)"/>
<path d="M0 0 C0 0.33 0 0.66 0 1 C-1.98 1 -3.96 1 -6 1 C-6 1.66 -6 2.32 -6 3 C-7.299375 2.979375 -8.59875 2.95875 -9.9375 2.9375 C-11.29165633 2.91600546 -12.64756083 2.92851801 -14 3 C-14.33 3.33 -14.66 3.66 -15 4 C-16.66617115 4.04063832 -18.33388095 4.042721 -20 4 C-19.67 3.01 -19.34 2.02 -19 1 C-12.62641289 0.03794912 -6.44070471 -0.10655578 0 0 Z " fill="#181819" transform="translate(412,515)"/>
<path d="M0 0 C2.29633824 3.44450737 2.54016485 5.93812283 3 10 C1.02 10.66 -0.96 11.32 -3 12 C-2.01 8.04 -1.02 4.08 0 0 Z " fill="#EBECEC" transform="translate(647,611)"/>
<path d="M0 0 C1.4540625 0.0309375 1.4540625 0.0309375 2.9375 0.0625 C2.9375 3.3625 2.9375 6.6625 2.9375 10.0625 C2.6075 10.0625 2.2775 10.0625 1.9375 10.0625 C1.6075 12.0425 1.2775 14.0225 0.9375 16.0625 C0.6075 16.0625 0.2775 16.0625 -0.0625 16.0625 C-0.0625 11.4425 -0.0625 6.8225 -0.0625 2.0625 C-1.3825 1.7325 -2.7025 1.4025 -4.0625 1.0625 C-3.0625 0.0625 -3.0625 0.0625 0 0 Z " fill="#222323" transform="translate(844.0625,221.9375)"/>
<path d="M0 0 C1.75570313 0.01353516 1.75570313 0.01353516 3.546875 0.02734375 C4.43890625 0.03894531 5.3309375 0.05054688 6.25 0.0625 C5.23046875 1.55078125 5.23046875 1.55078125 3.25 3.0625 C0.60003674 3.2797101 -1.80076558 3.34601554 -4.4375 3.25 C-5.13939453 3.23646484 -5.84128906 3.22292969 -6.56445312 3.20898438 C-8.29329829 3.17370182 -10.02174765 3.11989583 -11.75 3.0625 C-10.75 1.0625 -10.75 1.0625 -9.109375 0.44140625 C-6.04728012 -0.05035402 -3.10003047 -0.0310003 0 0 Z " fill="#191919" transform="translate(374.75,535.9375)"/>
<path d="M0 0 C4.95 0 9.9 0 15 0 C14.01 0.495 14.01 0.495 13 1 C13 1.66 13 2.32 13 3 C10.03 3 7.06 3 4 3 C4 2.34 4 1.68 4 1 C2.68 0.67 1.36 0.34 0 0 Z " fill="#181818" transform="translate(287,809)"/>
<path d="M0 0 C0.33 0 0.66 0 1 0 C1.08071788 2.79224073 1.14035408 5.58216566 1.1875 8.375 C1.21263672 9.1690625 1.23777344 9.963125 1.26367188 10.78125 C1.29004405 12.85586148 1.15486462 14.93100865 1 17 C0.01 17.66 -0.98 18.32 -2 19 C-2.24794402 12.4294834 -1.32388229 6.43028541 0 0 Z " fill="#1D1E1E" transform="translate(590,766)"/>
<path d="M0 0 C1.91595968 -0.08133791 3.83291932 -0.13934367 5.75 -0.1875 C7.35101563 -0.23970703 7.35101563 -0.23970703 8.984375 -0.29296875 C12 0 12 0 16 3 C10.72 3 5.44 3 0 3 C0 2.01 0 1.02 0 0 Z " fill="#1C1B1C" transform="translate(367,173)"/>
<path d="M0 0 C2.46301423 2.46301423 2.76766521 4.27360036 3.625 7.625 C3.88539063 8.62789062 4.14578125 9.63078125 4.4140625 10.6640625 C4.60742188 11.43492187 4.80078125 12.20578125 5 13 C4.01 13 3.02 13 2 13 C1.46605821 11.5882217 0.94834896 10.17029756 0.4375 8.75 C0.14746094 7.96109375 -0.14257812 7.1721875 -0.44140625 6.359375 C-1.04522837 3.80896548 -0.8473932 2.44677771 0 0 Z " fill="#181718" transform="translate(656,632)"/>
<path d="M0 0 C5.452999 1.56818272 9.76486783 3.03810217 14 7 C10.88200997 6.24964259 7.81929597 5.36636589 4.75 4.4375 C3.85796875 4.16808594 2.9659375 3.89867187 2.046875 3.62109375 C1.37140625 3.41613281 0.6959375 3.21117187 0 3 C0 2.01 0 1.02 0 0 Z " fill="#1A1A1A" transform="translate(560,730)"/>
<path d="M0 0 C0.99 0 1.98 0 3 0 C3 0.66 3 1.32 3 2 C3.9075 1.79375 4.815 1.5875 5.75 1.375 C9.11027897 0.9872755 10.24075815 1.19588033 13 3 C12.67 3.66 12.34 4.32 12 5 C6.06 4.01 6.06 4.01 0 3 C0 2.01 0 1.02 0 0 Z " fill="#191919" transform="translate(278,529)"/>
<path d="M0 0 C4.10958767 1.45044271 7.43258745 3.51110752 11 6 C10.34 6.66 9.68 7.32 9 8 C8.34 7.67 7.68 7.34 7 7 C7 6.34 7 5.68 7 5 C6.443125 4.87625 5.88625 4.7525 5.3125 4.625 C2.77885636 3.94023145 0.42078968 3.00866237 -2 2 C-1.34 1.34 -0.68 0.68 0 0 Z " fill="#171617" transform="translate(229,596)"/>
<path d="M0 0 C4.12751449 0.60698743 7.3321148 2.03810791 11 4 C11 4.99 11 5.98 11 7 C6.96479403 5.41037341 2.98188718 3.71767682 -1 2 C-0.67 1.34 -0.34 0.68 0 0 Z " fill="#1A1A1B" transform="translate(742,459)"/>
<path d="M0 0 C0.99 0.33 1.98 0.66 3 1 C3.6875 3.0625 3.6875 3.0625 4 5 C3.49984375 4.84660156 2.9996875 4.69320312 2.484375 4.53515625 C-0.90327766 3.80542604 -4.29961519 3.63643523 -7.75 3.4375 C-8.44738281 3.39431641 -9.14476562 3.35113281 -9.86328125 3.30664062 C-11.57531922 3.20110404 -13.28763561 3.1001009 -15 3 C-15 2.67 -15 2.34 -15 2 C-10.05 2 -5.1 2 0 2 C0 1.34 0 0.68 0 0 Z " fill="#1A1B1B" transform="translate(503,684)"/>
<path d="M0 0 C1.79158489 -0.02696365 3.58328473 -0.04637917 5.375 -0.0625 C6.37273437 -0.07410156 7.37046875 -0.08570313 8.3984375 -0.09765625 C11 0 11 0 13 1 C13 1.66 13 2.32 13 3 C11.20906809 3.08086147 9.41710372 3.13912702 7.625 3.1875 C6.12839844 3.23970703 6.12839844 3.23970703 4.6015625 3.29296875 C3.74304688 3.19628906 2.88453125 3.09960938 2 3 C1.34 2.01 0.68 1.02 0 0 Z " fill="#212221" transform="translate(325,384)"/>
<path d="M0 0 C4.51617599 -0.07654536 8.59085217 -0.10228696 13 1 C13 1.33 13 1.66 13 2 C9.37 2.33 5.74 2.66 2 3 C1.67 4.65 1.34 6.3 1 8 C0.67 8 0.34 8 0 8 C0 5.36 0 2.72 0 0 Z " fill="#2A2B2A" transform="translate(569,239)"/>
<path d="M0 0 C0 0.99 0 1.98 0 3 C-1.2065625 2.9690625 -1.2065625 2.9690625 -2.4375 2.9375 C-4.93354885 2.70366379 -4.93354885 2.70366379 -6 4 C-7.99958364 4.04080783 -10.00045254 4.04254356 -12 4 C-10 1 -10 1 -7.125 0.3125 C-4 0 -4 0 0 0 Z " fill="#1D1D1D" transform="translate(301,176)"/>
<path d="M0 0 C2.95183101 2.95183101 3.08663988 5.95511947 4 10 C2.35 10 0.7 10 -1 10 C-1.125 3.375 -1.125 3.375 0 0 Z " fill="#EAEBEB" transform="translate(303,612)"/>
<path d="M0 0 C-0.33 0.99 -0.66 1.98 -1 3 C-5.29 2.67 -9.58 2.34 -14 2 C-14 1.67 -14 1.34 -14 1 C-9.27616037 0.34843591 -4.78025483 -0.11950637 0 0 Z " fill="#212122" transform="translate(829,223)"/>
<path d="M0 0 C1.21236328 0.02707031 1.21236328 0.02707031 2.44921875 0.0546875 C3.37154297 0.08949219 3.37154297 0.08949219 4.3125 0.125 C4.6425 1.115 4.9725 2.105 5.3125 3.125 C1.0225 2.795 -3.2675 2.465 -7.6875 2.125 C-4.48369983 -0.01086678 -3.66810033 -0.10632175 0 0 Z " fill="#1E1E1F" transform="translate(307.6875,381.875)"/>
<path d="M0 0 C-4.95 2.475 -4.95 2.475 -10 5 C-10.33 4.34 -10.66 3.68 -11 3 C-7.83370093 -0.83288835 -4.68080329 -1.56026776 0 0 Z " fill="#E9E9E9" transform="translate(721,376)"/>
<path d="M0 0 C0 0.66 0 1.32 0 2 C-3.303314 2.88935377 -6.62294375 3.46274105 -10 4 C-10 3.01 -10 2.02 -10 1 C-8.71073008 0.63720544 -7.41846728 0.28503302 -6.125 -0.0625 C-5.40570313 -0.25972656 -4.68640625 -0.45695312 -3.9453125 -0.66015625 C-2 -1 -2 -1 0 0 Z " fill="#1A1A1A" transform="translate(444,280)"/>
<path d="M0 0 C0 0.66 0 1.32 0 2 C-7.42857143 4.42857143 -7.42857143 4.42857143 -11 3 C-10 1 -10 1 -8.22265625 0.33203125 C-7.15337891 0.07486328 -7.15337891 0.07486328 -6.0625 -0.1875 C-5.35222656 -0.36667969 -4.64195312 -0.54585938 -3.91015625 -0.73046875 C-2 -1 -2 -1 0 0 Z " fill="#1B1B1B" transform="translate(437,434)"/>
<path d="M0 0 C2.29633824 3.44450737 2.54016485 5.93812283 3 10 C2.34 9.67 1.68 9.34 1 9 C1 8.34 1 7.68 1 7 C0.01 7.33 -0.98 7.66 -2 8 C-1.34 5.36 -0.68 2.72 0 0 Z " fill="#EFEFEF" transform="translate(459,612)"/>
<path d="M0 0 C0.33 0 0.66 0 1 0 C1.33 3.96 1.66 7.92 2 12 C1.01 12 0.02 12 -1 12 C-0.67 8.04 -0.34 4.08 0 0 Z " fill="#242424" transform="translate(696,344)"/>
<path d="M0 0 C-0.33 0.99 -0.66 1.98 -1 3 C-3.64 3.33 -6.28 3.66 -9 4 C-8.67 3.01 -8.34 2.02 -8 1 C-5.23735711 0.40267181 -2.83967231 0 0 0 Z " fill="#F2F3F3" transform="translate(427,457)"/>
<path d="M0 0 C2.6855594 2.6855594 3.06049974 5.37621328 4 9 C3.01 9.495 3.01 9.495 2 10 C-1.07692308 4.58461538 -1.07692308 4.58461538 -0.6875 1.625 C-0.460625 1.08875 -0.23375 0.5525 0 0 Z " fill="#1C1C1C" transform="translate(671,352)"/>
<path d="M0 0 C-1.65 0.33 -3.3 0.66 -5 1 C-5 1.66 -5 2.32 -5 3 C-7.875 3.125 -7.875 3.125 -11 3 C-11.66 2.34 -12.32 1.68 -13 1 C-11.20994059 0.63779734 -9.41787943 0.28547531 -7.625 -0.0625 C-6.12839844 -0.35833984 -6.12839844 -0.35833984 -4.6015625 -0.66015625 C-2 -1 -2 -1 0 0 Z " fill="#E8E8E8" transform="translate(435,304)"/>
<path d="M0 0 C-2.1413437 2.46254526 -3.69870394 3.69050349 -7 4 C-7.99 3.34 -8.98 2.68 -10 2 C-3.375 -1.125 -3.375 -1.125 0 0 Z " fill="#171718" transform="translate(224,667)"/>
<path d="M0 0 C2.97 0.99 5.94 1.98 9 3 C8.67 3.99 8.34 4.98 8 6 C6.02 5.34 4.04 4.68 2 4 C2 3.34 2 2.68 2 2 C1.34 2 0.68 2 0 2 C0 1.34 0 0.68 0 0 Z " fill="#ECECEC" transform="translate(716,641)"/>
<path d="M0 0 C0.99 0.33 1.98 0.66 3 1 C2.34 1 1.68 1 1 1 C1.33 3.64 1.66 6.28 2 9 C1.01 9 0.02 9 -1 9 C-1.125 2.25 -1.125 2.25 0 0 Z " fill="#ECECEC" transform="translate(724,611)"/>
<path d="M0 0 C2.1640625 0.0234375 2.1640625 0.0234375 4.625 0.375 C5.85089844 0.54128906 5.85089844 0.54128906 7.1015625 0.7109375 C7.72804688 0.80632812 8.35453125 0.90171875 9 1 C4.8204355 3.78637633 2.85331323 2.79562512 -2 2 C-1.34 1.34 -0.68 0.68 0 0 Z " fill="#1E1F1F" transform="translate(271,300)"/>
<path d="M0 0 C3.375 -0.1875 3.375 -0.1875 7 0 C7.66 0.99 8.32 1.98 9 3 C5.7 3 2.4 3 -1 3 C-0.67 2.01 -0.34 1.02 0 0 Z " fill="#272727" transform="translate(320,289)"/>
<path d="M0 0 C2.64 0.33 5.28 0.66 8 1 C8.33 1.99 8.66 2.98 9 4 C6.03 3.67 3.06 3.34 0 3 C0 2.01 0 1.02 0 0 Z " fill="#1D1D1D" transform="translate(421,197)"/>
<path d="M0 0 C2.31 0 4.62 0 7 0 C7.33 0.99 7.66 1.98 8 3 C5.36 3 2.72 3 0 3 C0 2.01 0 1.02 0 0 Z " fill="#1C1C1C" transform="translate(206,591)"/>
<path d="M0 0 C5.75 1.75 5.75 1.75 8 4 C5 5 5 5 1.8125 3.5625 C0.884375 3.046875 -0.04375 2.53125 -1 2 C-0.67 1.34 -0.34 0.68 0 0 Z " fill="#202020" transform="translate(475,194)"/>
<path d="M0 0 C-2.97 0.66 -5.94 1.32 -9 2 C-8.67 1.01 -8.34 0.02 -8 -1 C-4.40321889 -2.61235015 -3.79177789 -1.89588895 0 0 Z " fill="#171717" transform="translate(556,807)"/>
<path d="M0 0 C2.59487555 1.29743778 3.02269781 2.29362471 4 5 C3.625 7.75 3.625 7.75 3 10 C1.11608215 6.73454239 0.50712033 3.71888239 0 0 Z " fill="#F1F1F1" transform="translate(677,304)"/>
<path d="M0 0 C2.31 0.33 4.62 0.66 7 1 C7.33 1.99 7.66 2.98 8 4 C5.36 3.67 2.72 3.34 0 3 C0 2.01 0 1.02 0 0 Z " fill="#181819" transform="translate(599,242)"/>
<path d="M0 0 C6.625 -0.25 6.625 -0.25 10 2 C5.545 2.495 5.545 2.495 1 3 C0.67 2.01 0.34 1.02 0 0 Z " fill="#1C1B1C" transform="translate(291,196)"/>
<path d="M0 0 C0.66 0.33 1.32 0.66 2 1 C2.59355614 3.64860427 2.74209269 6.29197322 3 9 C2.67 8.34 2.34 7.68 2 7 C1.34 7 0.68 7 0 7 C-1.125 2.25 -1.125 2.25 0 0 Z " fill="#F3F4F4" transform="translate(331,784)"/>
<path d="M0 0 C4.95 0.99 4.95 0.99 10 2 C7 4 7 4 4 4 C4 3.34 4 2.68 4 2 C2.68 2 1.36 2 0 2 C0 1.34 0 0.68 0 0 Z " fill="#1B1B1B" transform="translate(290,764)"/>
<path d="M0 0 C2.30449377 1.48677017 3.76097537 2.45365799 4.875 5 C5 7 5 7 3 10 C0 3.375 0 3.375 0 0 Z " fill="#1A1A1B" transform="translate(664,611)"/>
<path d="M0 0 C0.66 0.66 1.32 1.32 2 2 C1.625 5.625 1.625 5.625 1 9 C0.01 9 -0.98 9 -2 9 C-1.505 7.6078125 -1.505 7.6078125 -1 6.1875 C0.14967004 3.07970709 0.14967004 3.07970709 0 0 Z " fill="#181717" transform="translate(300,613)"/>
<path d="M0 0 C2.97 0.33 5.94 0.66 9 1 C5.00889681 2.9955516 3.30013434 3.19546065 -1 3 C-0.67 2.01 -0.34 1.02 0 0 Z " fill="#1D1D1E" transform="translate(415,513)"/>
<path d="M0 0 C5.53846154 -0.36923077 5.53846154 -0.36923077 7.875 1.5 C8.24625 1.995 8.6175 2.49 9 3 C6.36 3 3.72 3 1 3 C0.67 2.01 0.34 1.02 0 0 Z " fill="#171817" transform="translate(582,240)"/>
</svg>
